<svg xmlns="http://www.w3.org/2000/svg" xmlns:xlink="http://www.w3.org/1999/xlink" width="1500" zoomAndPan="magnify" viewBox="0 0 1125 1124.99995" height="1500" preserveAspectRatio="xMidYMid meet" version="1.0"><defs><clipPath id="ec8faca4ae"><path d="M 440 199 L 1079.71875 199 L 1079.71875 1125 L 440 1125 Z M 440 199 " clip-rule="nonzero"/></clipPath><clipPath id="ba684cbc97"><path d="M 45.46875 0 L 685 0 L 685 925 L 45.46875 925 Z M 45.46875 0 " clip-rule="nonzero"/></clipPath></defs><g clip-path="url(#ec8faca4ae)"><path fill="#000000" d="M 1079.160156 1120.867188 C 1049.417969 1073.480469 1019.652344 1026.09375 989.855469 978.707031 L 945.140625 907.792969 L 900.261719 836.859375 L 810.355469 695.089844 L 726.011719 562.292969 L 834.605469 402.855469 L 863.195312 360.9375 C 872.765625 346.984375 882.253906 332.992188 891.886719 319.082031 L 949.648438 235.644531 L 973.007812 201.910156 L 664.984375 199.84375 L 658.492188 211.441406 C 649.003906 228.429688 639.722656 245.523438 630.359375 262.574219 L 623.351562 275.390625 L 616.445312 288.265625 L 602.554688 313.9375 L 575.101562 365.464844 L 561.105469 392.042969 C 555.773438 383.941406 550.429688 375.851562 545.085938 367.777344 L 528.710938 343.285156 L 512.171875 318.875 L 495.636719 294.527344 L 478.871094 270.285156 C 467.636719 254.121094 456.238281 238.074219 444.675781 222.144531 C 444.515625 221.871094 444.308594 221.640625 444.058594 221.449219 C 443.804688 221.257812 443.523438 221.121094 443.214844 221.039062 C 442.910156 220.960938 442.597656 220.941406 442.285156 220.984375 C 441.96875 221.027344 441.675781 221.128906 441.402344 221.289062 C 441.128906 221.449219 440.894531 221.65625 440.703125 221.910156 C 440.511719 222.164062 440.375 222.441406 440.292969 222.75 C 440.214844 223.054688 440.195312 223.367188 440.238281 223.679688 C 440.28125 223.996094 440.382812 224.289062 440.542969 224.5625 C 448.9375 242.339844 457.5625 260.011719 466.425781 277.578125 L 479.675781 303.910156 L 493.113281 330.160156 L 506.652344 356.328125 L 520.316406 382.414062 C 529.515625 399.753906 538.695312 417.117188 548.019531 434.394531 L 561.476562 459.320312 L 577.5 434.1875 C 587.957031 417.757812 598.171875 401.242188 608.507812 384.746094 L 639.226562 335.144531 L 654.460938 310.238281 L 662.070312 297.835938 L 669.617188 285.433594 C 677.242188 272.804688 684.894531 260.199219 692.457031 247.546875 C 698.496094 247.546875 882.648438 246.84375 889.964844 246.699219 L 858.316406 296.945312 C 849.324219 311.269531 840.164062 325.46875 831.089844 339.75 L 803.761719 382.496094 L 694.320312 553.40625 L 688.613281 562.292969 L 694.320312 570.5625 L 789.207031 709.042969 L 884.300781 847.378906 L 931.847656 916.515625 L 979.558594 985.570312 C 1011.339844 1031.675781 1043.230469 1077.671875 1075.234375 1123.554688 C 1075.40625 1123.8125 1075.625 1124.023438 1075.882812 1124.195312 C 1076.140625 1124.367188 1076.421875 1124.480469 1076.726562 1124.539062 C 1077.03125 1124.601562 1077.335938 1124.601562 1077.640625 1124.539062 C 1077.941406 1124.480469 1078.222656 1124.363281 1078.480469 1124.191406 C 1078.742188 1124.019531 1078.957031 1123.808594 1079.128906 1123.550781 C 1079.304688 1123.292969 1079.421875 1123.015625 1079.488281 1122.710938 C 1079.550781 1122.40625 1079.554688 1122.105469 1079.496094 1121.800781 C 1079.441406 1121.496094 1079.328125 1121.210938 1079.160156 1120.953125 Z M 1079.160156 1120.867188 " fill-opacity="1" fill-rule="nonzero"/></g><g clip-path="url(#ba684cbc97)"><path fill="#000000" d="M 658.96875 846.40625 L 645.71875 820.054688 L 632.300781 793.824219 L 618.742188 767.660156 L 605.074219 741.574219 C 595.875 724.214844 586.71875 706.851562 577.375 689.59375 L 563.917969 664.644531 L 547.894531 689.800781 C 537.433594 706.210938 527.222656 722.746094 516.886719 739.238281 L 486.148438 788.84375 L 470.929688 813.75 L 463.304688 826.152344 L 455.777344 838.554688 C 448.15625 851.1875 440.578125 863.816406 433.039062 876.4375 C 427.003906 876.4375 242.851562 877.164062 235.511719 877.308594 L 267.078125 827.0625 C 276.09375 812.738281 285.25 798.515625 294.324219 784.257812 L 321.65625 741.492188 L 431.09375 570.582031 L 436.78125 561.695312 L 431.09375 553.425781 L 336.207031 415.234375 L 241.113281 277.1875 L 193.566406 208.195312 L 145.8125 139.285156 C 114.058594 93.316406 82.175781 47.433594 50.160156 1.628906 C 49.988281 1.382812 49.777344 1.171875 49.523438 1.003906 C 49.273438 0.839844 49 0.722656 48.703125 0.664062 C 48.40625 0.601562 48.109375 0.597656 47.808594 0.648438 C 47.511719 0.703125 47.234375 0.808594 46.976562 0.96875 C 46.714844 1.136719 46.496094 1.347656 46.316406 1.601562 C 46.136719 1.855469 46.011719 2.136719 45.941406 2.4375 C 45.875 2.742188 45.863281 3.046875 45.914062 3.355469 C 45.964844 3.664062 46.070312 3.949219 46.234375 4.214844 C 76.003906 51.53125 105.769531 98.820312 135.539062 146.085938 L 180.253906 216.957031 L 225.132812 287.726562 L 315.019531 429.226562 L 399.382812 561.714844 L 290.851562 721.152344 L 262.261719 763.070312 C 252.691406 777 243.222656 791.015625 233.570312 804.925781 L 175.808594 888.363281 L 152.46875 922.097656 L 460.492188 924.164062 L 467.003906 912.464844 C 476.492188 895.476562 485.796875 878.382812 495.140625 861.332031 L 502.148438 848.515625 L 522.984375 810.007812 L 550.292969 758.542969 L 564.289062 731.984375 L 580.308594 756.207031 L 596.683594 780.699219 L 613.222656 805.132812 L 629.757812 829.480469 L 646.523438 853.722656 C 657.742188 869.875 669.140625 885.914062 680.71875 901.839844 C 680.890625 902.078125 681.101562 902.273438 681.347656 902.429688 C 681.59375 902.585938 681.859375 902.695312 682.148438 902.753906 C 682.433594 902.808594 682.722656 902.816406 683.007812 902.765625 C 683.296875 902.714844 683.566406 902.617188 683.820312 902.46875 C 684.070312 902.320312 684.285156 902.128906 684.46875 901.898438 C 684.648438 901.667969 684.78125 901.414062 684.867188 901.136719 C 684.953125 900.855469 684.984375 900.570312 684.964844 900.277344 C 684.945312 899.988281 684.871094 899.707031 684.75 899.445312 C 676.425781 881.710938 667.832031 864.03125 658.96875 846.40625 Z M 658.96875 846.40625 " fill-opacity="1" fill-rule="nonzero"/></g></svg>